<svg width="15" height="16" viewBox="0 0 15 16" fill="none" xmlns="http://www.w3.org/2000/svg">
<g id="layer1">
<path id="path1002" d="M0.525837 0.503398C0.384441 0.505888 0.249777 0.564236 0.151258 0.665691C0.0527397 0.767146 -0.0016257 0.903441 3.70478e-05 1.04485V14.9592C-0.000505976 15.1012 0.0553536 15.2375 0.15533 15.3383C0.255306 15.439 0.391211 15.496 0.533154 15.4965H14.4527C14.524 15.4981 14.5949 15.4854 14.6612 15.4593C14.7275 15.4331 14.788 15.3939 14.8389 15.3441C14.8899 15.2942 14.9304 15.2347 14.9581 15.1689C14.9857 15.1032 15 15.0326 15 14.9613C15 14.89 14.9857 14.8194 14.9581 14.7537C14.9304 14.688 14.8899 14.6284 14.8389 14.5786C14.788 14.5287 14.7275 14.4896 14.6612 14.4634C14.5949 14.4372 14.524 14.4245 14.4527 14.4261H1.0715V1.04485C1.07234 0.973153 1.05878 0.902053 1.0316 0.835701C1.00442 0.769349 0.964195 0.709097 0.9133 0.658592C0.862404 0.608087 0.801881 0.568335 0.735322 0.541672C0.668763 0.515008 0.597525 0.502 0.525837 0.503398ZM14.4402 3.98329C14.3015 3.9877 14.17 4.04581 14.0733 4.14534L8.58113 9.63751L6.28246 7.10884C6.18696 7.00427 6.05391 6.9418 5.91245 6.93513C5.77099 6.92845 5.63265 6.97811 5.52773 7.07322L2.31544 10.0168C2.26354 10.0643 2.2215 10.1216 2.19173 10.1854C2.16195 10.2491 2.14503 10.3181 2.14191 10.3884C2.1388 10.4586 2.14956 10.5288 2.17359 10.595C2.19761 10.6611 2.23443 10.7218 2.28193 10.7737C2.32943 10.8256 2.38669 10.8677 2.45043 10.8975C2.51418 10.9272 2.58316 10.9441 2.65345 10.9472C2.72373 10.9503 2.79394 10.9395 2.86006 10.9155C2.92618 10.8914 2.98692 10.8546 3.03881 10.8071L5.85596 8.22724L8.16718 10.7716C8.21577 10.8251 8.27472 10.8684 8.34045 10.8985C8.40618 10.9287 8.47734 10.9451 8.54963 10.947C8.62193 10.9489 8.69385 10.9362 8.76107 10.9095C8.82829 10.8828 8.8894 10.8428 8.94073 10.7918L14.828 4.90143C14.9045 4.82619 14.9567 4.72968 14.9776 4.62444C14.9986 4.5192 14.9875 4.4101 14.9457 4.31127C14.9039 4.21244 14.8333 4.12844 14.7432 4.07021C14.653 4.01197 14.5475 3.98078 14.4402 3.98329Z" fill="black"/>
</g>
</svg>
