<svg width="14" height="14" viewBox="0 0 14 14" fill="none" xmlns="http://www.w3.org/2000/svg">
<g id="clock (11) 1" clip-path="url(#clip0_21_6538)">
<g id="Group">
<path id="Vector" d="M7 0C3.1552 0 0 3.1552 0 7C0 10.8448 3.1552 14 7 14C10.8448 14 14 10.8448 14 7C14 3.1552 10.8448 0 7 0ZM10.1903 3.22968C10.3505 3.0695 10.6101 3.0695 10.7703 3.22968C10.9305 3.38986 10.9305 3.64954 10.7703 3.80972C10.6101 3.9699 10.3505 3.9699 10.1903 3.80972C10.0301 3.64954 10.0301 3.38986 10.1903 3.22968ZM6.58984 2.07812C6.58984 1.85142 6.77329 1.66797 7 1.66797C7.22671 1.66797 7.41016 1.85142 7.41016 2.07812V2.89844C7.41016 3.12514 7.22671 3.30859 7 3.30859C6.77329 3.30859 6.58984 3.12514 6.58984 2.89844V2.07812ZM2.07812 7.41016C1.85142 7.41016 1.66797 7.22671 1.66797 7C1.66797 6.77329 1.85142 6.58984 2.07812 6.58984H2.89844C3.12514 6.58984 3.30859 6.77329 3.30859 7C3.30859 7.22671 3.12514 7.41016 2.89844 7.41016H2.07812ZM3.80972 10.7703C3.64954 10.9305 3.38986 10.9305 3.22968 10.7703C3.0695 10.6101 3.0695 10.3505 3.22968 10.1903C3.38986 10.0301 3.64954 10.0301 3.80972 10.1903C3.9699 10.3505 3.9699 10.6101 3.80972 10.7703ZM3.80972 3.80972C3.64954 3.9699 3.38986 3.9699 3.22968 3.80972C3.0695 3.64954 3.0695 3.38986 3.22968 3.22968C3.38986 3.0695 3.64954 3.0695 3.80972 3.22968C3.9699 3.38986 3.9699 3.64954 3.80972 3.80972ZM7.41016 11.9219C7.41016 12.1486 7.22671 12.332 7 12.332C6.77329 12.332 6.58984 12.1486 6.58984 11.9219V11.1016C6.58984 10.8749 6.77329 10.6914 7 10.6914C7.22671 10.6914 7.41016 10.8749 7.41016 11.1016V11.9219ZM9.75092 9.75092C9.59071 9.91113 9.33114 9.91113 9.17093 9.75092L6.70999 7.28998C6.6331 7.21309 6.58984 7.10894 6.58984 7V4.53906C6.58984 4.31236 6.77329 4.12891 7 4.12891C7.22671 4.12891 7.41016 4.31236 7.41016 4.53906V6.83017L9.75092 9.17093C9.91115 9.33116 9.91115 9.59071 9.75092 9.75092ZM10.7703 10.7703C10.6101 10.9305 10.3505 10.9305 10.1903 10.7703C10.0301 10.6101 10.0301 10.3505 10.1903 10.1903C10.3505 10.0301 10.6101 10.0301 10.7703 10.1903C10.9305 10.3505 10.9305 10.6101 10.7703 10.7703ZM12.332 7C12.332 7.22671 12.1486 7.41016 11.9219 7.41016H11.1016C10.8749 7.41016 10.6914 7.22671 10.6914 7C10.6914 6.77329 10.8749 6.58984 11.1016 6.58984H11.9219C12.1486 6.58984 12.332 6.77329 12.332 7Z" fill="black"/>
</g>
</g>
<defs>
<clipPath id="clip0_21_6538">
<rect width="14" height="14" fill="white"/>
</clipPath>
</defs>
</svg>
