<svg width="11" height="11" viewBox="0 0 11 11" fill="none" xmlns="http://www.w3.org/2000/svg">
<g id="Component 1">
<path id="Arrow 1" d="M3.24749 0.752513C3.1108 0.615829 2.8892 0.615829 2.75251 0.752513L0.525127 2.9799C0.388443 3.11658 0.388443 3.33819 0.525127 3.47487C0.66181 3.61156 0.883418 3.61156 1.0201 3.47487L3 1.49498L4.9799 3.47487C5.11658 3.61156 5.33819 3.61156 5.47487 3.47487C5.61156 3.33819 5.61156 3.11658 5.47487 2.9799L3.24749 0.752513ZM3.35 11L3.35 1L2.65 1L2.65 11L3.35 11Z" fill="#A2A2A2"/>
<path id="Arrow 2" d="M7.75251 10.7475C7.8892 10.8842 8.1108 10.8842 8.24749 10.7475L10.4749 8.5201C10.6116 8.38342 10.6116 8.16181 10.4749 8.02513C10.3382 7.88844 10.1166 7.88844 9.9799 8.02513L8 10.005L6.0201 8.02513C5.88342 7.88844 5.66181 7.88844 5.52513 8.02513C5.38844 8.16181 5.38844 8.38342 5.52513 8.5201L7.75251 10.7475ZM7.65 0.5L7.65 10.5L8.35 10.5L8.35 0.5L7.65 0.5Z" fill="#A2A2A2"/>
</g>
</svg>
