<svg width="12" height="12" viewBox="0 0 12 12" fill="none" xmlns="http://www.w3.org/2000/svg">
<g id="rocket (1) 1" clip-path="url(#clip0_35_15)">
<g id="Group">
<path id="Vector" d="M11.1937 0.897682C11.1844 0.855495 11.1515 0.822682 11.1117 0.810963C9.73827 0.475807 6.56717 1.67112 4.8492 3.38909C4.54217 3.69378 4.26327 4.02424 4.01483 4.37581C3.48514 4.32893 2.95545 4.36878 2.50311 4.56565C1.22811 5.12581 0.857796 6.59065 0.752328 7.21878C0.731234 7.34065 0.813265 7.45784 0.937484 7.47893C0.958578 7.48128 0.979672 7.48362 1.00077 7.48128L3.04686 7.25628C3.0492 7.41096 3.05858 7.56565 3.07498 7.71799C3.08436 7.82346 3.13358 7.92424 3.20858 7.99924L4.00076 8.78909C4.07576 8.86409 4.17655 8.91331 4.28201 8.92268C4.43436 8.93909 4.5867 8.94846 4.74139 8.95081L4.51639 10.9946C4.50233 11.1188 4.59373 11.2313 4.71795 11.243C4.73905 11.2453 4.76014 11.2453 4.77889 11.2407C5.40701 11.1399 6.8742 10.7696 7.43201 9.49456C7.62889 9.04221 7.66873 8.51487 7.6242 7.98753C7.97811 7.73909 8.30858 7.45784 8.61326 7.15315C10.3359 5.43987 11.5242 2.33909 11.1937 0.897682ZM8.48201 5.10706C8.04373 5.54534 7.33123 5.54768 6.89295 5.10706C6.45233 4.66878 6.45233 3.95628 6.89295 3.51565C7.33123 3.07503 8.04373 3.07503 8.48436 3.51565C8.92264 3.95628 8.92264 4.66878 8.48201 5.10706Z" fill="black"/>
<path id="Vector_2" d="M3.94687 9.36098C3.81797 9.48989 3.61172 9.5391 3.36328 9.58364C2.80547 9.67739 2.31328 9.19692 2.41406 8.63442C2.45156 8.42114 2.56641 8.12114 2.63672 8.05082C2.67656 8.01098 2.67891 7.94535 2.63906 7.90551C2.61562 7.88207 2.58516 7.87035 2.55234 7.87504C2.24063 7.91254 1.95 8.05551 1.72969 8.27582C1.17656 8.82895 1.125 10.875 1.125 10.875C1.125 10.875 3.17344 10.8235 3.72422 10.2704C3.94687 10.0477 4.0875 9.75942 4.125 9.44535C4.13438 9.34926 4.01484 9.29067 3.94687 9.36098Z" fill="black"/>
</g>
</g>
<defs>
<clipPath id="clip0_35_15">
<rect width="12" height="12" fill="white"/>
</clipPath>
</defs>
</svg>
