<svg width="10" height="10" viewBox="0 0 10 10" fill="none" xmlns="http://www.w3.org/2000/svg">
<g id="link (1) 1" clip-path="url(#clip0_17_3508)">
<g id="Group">
<g id="Group_2">
<g id="Group_3">
<path id="Vector" d="M4.1456 7.62192L2.96725 8.80027C2.47874 9.28878 1.68762 9.28878 1.19951 8.80036C0.711303 8.31216 0.711303 7.52096 1.19941 7.03285L3.55651 4.67575C4.04462 4.18762 4.83582 4.18762 5.32393 4.67575C5.48664 4.83846 5.75047 4.83846 5.91319 4.67575C6.0759 4.51303 6.0759 4.2492 5.91319 4.08649C5.09963 3.27293 3.78081 3.27293 2.96725 4.08649L0.61017 6.44357C-0.20339 7.25713 -0.20339 8.57595 0.61017 9.38951C1.42363 10.2035 2.74255 10.2035 3.55653 9.38951L4.73488 8.21116C4.8976 8.04844 4.8976 7.78462 4.73488 7.6219C4.57217 7.45918 4.30832 7.4592 4.1456 7.62192Z" fill="#4499B8"/>
<path id="Vector_2" d="M9.38949 0.61017C8.57593 -0.20339 7.25669 -0.20339 6.44313 0.61017L5.02937 2.02393C4.86665 2.18664 4.86665 2.45047 5.02937 2.61319C5.19208 2.77591 5.45591 2.77591 5.61863 2.61319L7.03239 1.19943C7.5205 0.711303 8.3121 0.711303 8.80023 1.19943C9.28834 1.68754 9.28834 2.47874 8.80023 2.96684L6.20771 5.55938C5.71959 6.04751 4.92841 6.04751 4.4403 5.55938C4.27759 5.39666 4.01376 5.39666 3.85104 5.55938C3.68832 5.72209 3.68832 5.98592 3.85104 6.14864C4.6646 6.9622 5.98342 6.9622 6.79698 6.14864L9.38949 3.55612C10.2031 2.74256 10.2031 1.42373 9.38949 0.61017Z" fill="#4499B8"/>
</g>
</g>
</g>
</g>
<defs>
<clipPath id="clip0_17_3508">
<rect width="10" height="10" fill="white"/>
</clipPath>
</defs>
</svg>
